<svg height="512" viewBox="0 0 32 32" width="512" xmlns="http://www.w3.org/2000/svg"><g id="_04_connect" data-name="04 connect"><path d="m6 26a2 2 0 1 1 -2-2 2 2 0 0 1 2 2zm-2-6a5.689 5.689 0 0 0 -1.215.124 1 1 0 0 0 .43 1.953 3.684 3.684 0 0 1 .785-.077 4 4 0 0 1 4 4 3.74 3.74 0 0 1 -.077.788 1 1 0 0 0 .766 1.19 1.027 1.027 0 0 0 .211.022 1 1 0 0 0 .976-.788 5.756 5.756 0 0 0 .124-1.212 6.006 6.006 0 0 0 -6-6zm0-4a9.252 9.252 0 0 0 -1.12.067 1 1 0 1 0 .24 1.986 7.321 7.321 0 0 1 .88-.053 8.009 8.009 0 0 1 8 8 7.093 7.093 0 0 1 -.052.879 1 1 0 0 0 1.986.242 9.22 9.22 0 0 0 .066-1.121 10.011 10.011 0 0 0 -10-10zm23-12h-22a3 3 0 0 0 -3 3v6.17a13.056 13.056 0 0 1 2-.17 13.015 13.015 0 0 1 13 13 12.931 12.931 0 0 1 -.17 2h10.17a3 3 0 0 0 3-3v-18a3 3 0 0 0 -3-3z"/></g></svg>