<svg id="Capa_1" enable-background="new 0 0 512.013 512.013" height="512" viewBox="0 0 512.013 512.013" width="512" xmlns="http://www.w3.org/2000/svg"><g><path d="m136.007 512.007c8.291 0 15-6.709 15-15v-90c0-24.814-20.186-45-45-45h-48.296l-28.159-108.633c-2.007-8.042-10.225-12.979-18.179-10.913-8.042 2.007-12.935 10.151-10.913 18.179l30.546 118.213v118.154c0 8.291 6.709 15 15 15s15-6.709 15-15v-75h60v75c.001 8.291 6.709 15 15.001 15z"/><path d="m466.007 512.007c8.291 0 15-6.709 15-15v-118.155l30.546-118.213c2.022-8.027-2.871-16.172-10.913-18.179-8.101-2.095-16.187 2.871-18.179 10.913l-28.158 108.633h-48.296c-24.814 0-45 20.186-45 45v90c0 8.291 6.709 15 15 15s15-6.709 15-15v-75h60v75c0 8.292 6.708 15.001 15 15.001z"/><path d="m329.489 332.007h46.518c8.291 0 15-6.709 15-15s-6.709-15-15-15h-105v-151h90.002l-105.002-151-105.007 151h90.007v151h-105c-8.291 0-15 6.709-15 15s6.709 15 15 15h46.518c5.98 29.343 29.139 52.502 58.482 58.482v91.518h-45c-8.291 0-15 6.709-15 15s6.709 15 15 15h120c8.291 0 15-6.709 15-15s-6.709-15-15-15h-45v-91.518c29.342-5.981 52.501-29.14 58.482-58.482z"/><path d="m.402 139.449c1.597 6.768 7.646 11.558 14.604 11.558h98.504l96.634-139.845-201.846 111.427c-6.226 3.105-9.493 10.092-7.896 16.86z"/><path d="m503.715 122.589-201.848-111.43 96.628 139.847h98.511c6.958 0 13.008-4.79 14.604-11.558 1.598-6.767-1.669-13.754-7.895-16.859z"/></g></svg>