<svg height="512" viewBox="0 0 60 68" width="512" xmlns="http://www.w3.org/2000/svg"><path d="m64 690h-2c-1.1045695 0-2-.895431-2-2s.8954305-2 2-2h8c1.1045695 0 2 .895431 2 2s-.8954305 2-2 2h-2v5c0 1.104569.8954305 2 2 2h2.0829584c.4760781-2.837713 2.9440453-5 5.9170416-5h4v-5h-1.7040946c-3.3137085 0-6-2.686292-6-6 0-.14263.0050858-.285215.0152478-.427482l1.4285714-19c.2242738-3.139833 2.8369202-5.572518 5.9847522-5.572518h16.5510464c3.1478318 0 5.7604788 2.432685 5.9847518 5.572518l1.428572 19c.236092 3.305287-2.251983 6.176142-5.55727 6.412234-.1422677.010162-.2848523.015248-.4274824.015248h-1.7040946v5h4c2.972996 0 5.440963 2.162287 5.917042 5h2.082958c1.104569 0 2-.895431 2-2v-5h-2c-1.104569 0-2-.895431-2-2s.895431-2 2-2h8c1.104569 0 2 .895431 2 2s-.895431 2-2 2h-2v5c0 3.313708-2.686292 6-6 6h-2v1c0 2.209139-1.790861 4-4 4h-12v4h8c3.313708 0 6 2.686292 6 6v2h1c1.104569 0 2 .895431 2 2s-.895431 2-2 2h-6c-1.1045695 0-2-.895431-2-2s.8954305-2 2-2h1v-2c0-1.104569-.895431-2-2-2h-8v6h1c1.1045695 0 2 .895431 2 2s-.8954305 2-2 2h-6c-1.1045695 0-2-.895431-2-2s.8954305-2 2-2h1v-6h-8c-1.1045695 0-2 .895431-2 2v2h1c1.1045695 0 2 .895431 2 2s-.8954305 2-2 2h-6c-1.1045695 0-2-.895431-2-2s.8954305-2 2-2h1v-2c0-3.313708 2.6862915-6 6-6h8v-4h-12c-2.209139 0-4-1.790861-4-4v-1h-2c-3.3137085 0-6-2.686292-6-6zm22-3v5h8v-5z" transform="translate(-60 -656)"/></svg>