<svg id="Layer_3" enable-background="new 0 0 60 60" height="512" viewBox="0 0 60 60" width="512" xmlns="http://www.w3.org/2000/svg"><path d="m45.2837524 23.5401001c0 2.4419556 1.9846802 4.4265747 4.4265747 4.4265747 2.4418335 0 4.4265137-1.9846191 4.4265137-4.4265747 0-2.4321289-1.9846802-4.416748-4.4265137-4.416748-2.4418945 0-4.4265747 1.9846191-4.4265747 4.416748z"/><path d="m39.1254883 38.2109985c0-.5351563-.4280396-.9728394-.9728394-.9728394h-16.3052978c-.5350342 0-.9728394.4376831-.9728394.9728394 0 .5447998.4378052.9728394.9728394.9728394h16.3052979c.5447997 0 .9728393-.4280396.9728393-.9728394z"/><path d="m54.3217163 33.7357788c0-2.5391846-2.0722046-4.6113892-4.6113892-4.6113892-1.0701904 0-2.0527954.3599243-2.8310547.9728394-.0097656 0-.0097656.0097656-.0194702.0097656l-.0875854.0681152-4.7573242 3.6968994h-5.9636841c-.5350342 0-.9728394.4378052-.9728394.9728394 0 .5447998.4378052.9729004.9728394.9729004h6.2944946c.2139893 0 .4280396-.0681152.5934448-.2043457l2.1500244-1.6635742v6.1290894c-1.9360352.0388794-3.7163086 1.031189-4.7767944 2.6558838l-4.7962036 7.364624c-.7588501 1.1674805-.515625 2.7045898.6031494 3.6190796.4766846.3891602 1.079895.6032104 1.6928101.6032104.1166992 0 .2334595-.0097656.3502197-.0292358.7296753-.09729 1.4009399-.4961548 1.8192749-1.0993652l4.4460449-6.2749634h6.0025635c2.1500244 0 3.8914795-1.7511597 3.8914795-3.9011841z"/><path d="m5.8728638 23.5401001c0 2.4419556 1.9846191 4.4265747 4.4265747 4.4265747 2.4321289 0 4.416748-1.9846191 4.416748-4.4265747 0-2.4321289-1.9846191-4.416748-4.416748-4.416748-2.4419556 0-4.4265747 1.9846191-4.4265747 4.416748z"/><path d="m9.5795288 46.9181519h6.0025635l4.4362793 6.2749634c.4280396.6032104 1.0895996 1.0020752 1.8192749 1.0993652.1166992.0194702.2334595.0292358.3599243.0292358.612915 0 1.2160645-.2140503 1.7219849-.6323853 1.079895-.8853149 1.3231201-2.4224243.56427-3.5899048l-4.7962646-7.364624c-1.0604248-1.6246948-2.8407593-2.6170044-4.7767334-2.6558838v-6.138855l2.159729 1.6733398c.1751709.1362305.3793945.2043457.5935059.2043457h6.2943726c.5350952 0 .9729004-.4281006.9729004-.9729004 0-.5350342-.4378052-.9728394-.9729004-.9728394h-5.9539185l-4.7767334-3.6968994-.0778809-.0681152c-.0292358-.0194702-.0583496-.0388794-.0875854-.0583496-.0194092-.0097656-.0291748-.0195313-.048645-.0292358-.7587891-.564209-1.692749-.8950195-2.7142334-.8950195-2.5489502 0-4.6211548 2.0722046-4.6211548 4.6113892v9.281189c-.0000001 2.1500244 1.7511596 3.9011841 3.901245 3.9011841z"/><path d="m26.5560303 19.026001h11.0615234l2.3153687 2.2279053c.1848755.1751099.4281006.2723999.6713257.2723999.1264648 0 .2626953-.0291748.3793945-.0778809.3599854-.1556396.5934448-.5058594.5934448-.8950195v-12.374878c0-1.3814697-1.1187744-2.5002441-2.5001831-2.5002441h-12.520874c-1.3814697 0-2.5100098 1.1187744-2.5100098 2.5002441v8.3374634c0 1.3815308 1.12854 2.5100098 2.5100098 2.5100098z"/><path d="m19.0162964 25.6609497c.1264648.0584106.2529297.0778809.3793945.0778809.2529907 0 .4962158-.0973511.6810303-.2724609l2.3057251-2.2278442h11.071228c1.3036499 0 2.3737793-.9923096 2.4905396-2.2667847h-9.3881836c-2.4613647 0-4.4556885-1.9943848-4.4556885-4.4557495v-6.6252442h-1.1674805c-1.3814697 0-2.5100098 1.12854-2.5100098 2.5100098v12.3651733c.0000001.3890991.2334595.7393799.5934449.8950195z"/></svg>