<?xml version="1.0"?>
<svg xmlns="http://www.w3.org/2000/svg" id="glipy" viewBox="0 0 64 64"><path d="M8.5,58a2.00591,2.00591,0,0,0,2,2H31V33H8.5Zm18-14.75a1.00011,1.00011,0,0,1,2,0v4.5a1.00011,1.00011,0,0,1-2-.00006Z"/><path d="M8.5,6V31H31V4H10.5A2.00587,2.00587,0,0,0,8.5,6Zm18,10.25a1.00011,1.00011,0,0,1,2,0v4.5a1.00011,1.00011,0,0,1-2-.00006Z"/><path d="M53.5,4H33V31H55.5V6A2.00587,2.00587,0,0,0,53.5,4ZM52,20.75a1.00011,1.00011,0,0,1-2-.00006V16.25a1.00011,1.00011,0,0,1,2,0Z"/><path d="M33,60H53.5a2.00591,2.00591,0,0,0,2-2V33H33ZM50,43.25a1.00011,1.00011,0,0,1,2,0v4.5a1.00011,1.00011,0,0,1-2-.00006Z"/></svg>
